<?xml version="1.0" encoding="UTF-8" standalone="no"?>
<!-- Created with Inkscape (http://www.inkscape.org/) -->

<svg
   version="1.1"
   id="svg2"
   width="4000"
   height="2666.6667"
   viewBox="0 0 4000 2666.6667"
   sodipodi:docname="8600.eps"
   xmlns:inkscape="http://www.inkscape.org/namespaces/inkscape"
   xmlns:sodipodi="http://sodipodi.sourceforge.net/DTD/sodipodi-0.dtd"
   xmlns="http://www.w3.org/2000/svg"
   xmlns:svg="http://www.w3.org/2000/svg">
  <defs
     id="defs6" />
  <sodipodi:namedview
     id="namedview4"
     pagecolor="#ffffff"
     bordercolor="#000000"
     borderopacity="0.25"
     inkscape:showpageshadow="2"
     inkscape:pageopacity="0.0"
     inkscape:pagecheckerboard="0"
     inkscape:deskcolor="#d1d1d1" />
  <g
     id="g8"
     inkscape:groupmode="layer"
     inkscape:label="ink_ext_XXXXXX"
     transform="matrix(1.3333333,0,0,-1.3333333,0,2666.6667)">
    <g
       id="g10"
       transform="scale(0.1)">
      <path
         d="M 2749.34,1801.7 C -58.8516,8933.8 7265.26,8080 6064.27,12545.1 c -953.75,3545.9 4007.03,5832.7 9421.43,5832.7 5430.2,0 11316.8,-2301 12147.8,-7939.4 C 28563.3,4130.2 26734,1808.2 26734,1808.2 l -23984.66,-6.5 m 6125.27,14383.8 v -7875 H 20584.7 v 7875 H 8874.61"
         style="fill:#002f34;fill-opacity:1;fill-rule:nonzero;stroke:none"
         id="path14" />
      <path
         d="m 9081.59,8475.4 h 11296.2 v 7545.3 H 9081.59 Z"
         style="fill:#82b378;fill-opacity:1;fill-rule:nonzero;stroke:none"
         id="path16" />
      <path
         d="M 9081.59,8475.4 H 20377.8 v 7545.3 H 9081.59 V 8475.4 M 20584.7,8310.5 H 8874.61 v 7875 H 20584.7 v -7875"
         style="fill:#eac3a0;fill-opacity:1;fill-rule:nonzero;stroke:none"
         id="path18" />
      <path
         d="M 20660.3,8316.9 H 8816.99 c -62.14,0 -112.98,50.8 -112.98,112.9 v 6.5 c 0,62.1 50.84,113 112.98,113 H 20660.3 c 62.1,0 113,-50.9 113,-113 v -6.5 c 0,-62.1 -50.9,-112.9 -113,-112.9"
         style="fill:#d39e7a;fill-opacity:1;fill-rule:nonzero;stroke:none"
         id="path20" />
      <path
         d="m 18135.6,8549.3 h -344.4 c -41.1,0 -74.8,33.6 -74.8,74.8 v 4.2 c 0,41.2 33.7,74.8 74.8,74.8 h 344.4 c 41.1,0 74.8,-33.6 74.8,-74.8 v -4.2 c 0,-41.2 -33.7,-74.8 -74.8,-74.8"
         style="fill:#ffffff;fill-opacity:1;fill-rule:nonzero;stroke:none"
         id="path22" />
      <path
         d="m 15868.1,8549.3 h -172.3 c -31.3,0 -56.9,25.6 -56.9,56.9 v 40 c 0,31.3 25.6,56.9 56.9,56.9 h 172.3 c 31.3,0 56.9,-25.6 56.9,-56.9 v -40 c 0,-31.3 -25.6,-56.9 -56.9,-56.9"
         style="fill:#ffffff;fill-opacity:1;fill-rule:nonzero;stroke:none"
         id="path24" />
      <path
         d="m 15479.4,8549.3 h -348.7 c -41.1,0 -74.8,33.6 -74.8,74.8 v 4.2 c 0,41.2 33.7,74.8 74.8,74.8 h 348.7 c 41.1,0 74.8,-33.6 74.8,-74.8 v -4.2 c 0,-41.2 -33.7,-74.8 -74.8,-74.8"
         style="fill:#ffffff;fill-opacity:1;fill-rule:nonzero;stroke:none"
         id="path26" />
      <path
         d="m 23812.1,12965.9 h -1587.5 c -72.8,0 -132.4,59.6 -132.4,132.4 v 1532.2 c 0,72.8 59.6,132.4 132.4,132.4 h 1587.5 c 72.8,0 132.4,-59.6 132.4,-132.4 v -1532.2 c 0,-72.8 -59.6,-132.4 -132.4,-132.4"
         style="fill:#eac3a0;fill-opacity:1;fill-rule:nonzero;stroke:none"
         id="path28" />
      <path
         d="m 23743.3,13043.7 h -1449.9 c -66.5,0 -121,54.5 -121,121 v 1399.4 c 0,66.5 54.5,121 121,121 h 1449.9 c 66.5,0 121,-54.5 121,-121 v -1399.4 c 0,-66.5 -54.5,-121 -121,-121"
         style="fill:#ffeede;fill-opacity:1;fill-rule:nonzero;stroke:none"
         id="path30" />
      <path
         d="m 22980,14521.1 c 0,21.2 17.2,38.4 38.3,38.4 21.2,0 38.4,-17.2 38.4,-38.4 0,-21.2 -17.2,-38.4 -38.4,-38.4 -21.1,0 -38.3,17.2 -38.3,38.4"
         style="fill:#eac3a0;fill-opacity:1;fill-rule:nonzero;stroke:none"
         id="path32" />
      <path
         d="m 23289.6,14466.9 c 10.3,18.5 33.7,25.2 52.2,14.9 18.5,-10.3 25.2,-33.7 14.9,-52.2 -10.3,-18.5 -33.7,-25.2 -52.2,-14.9 -18.5,10.3 -25.2,33.6 -14.9,52.2"
         style="fill:#eac3a0;fill-opacity:1;fill-rule:nonzero;stroke:none"
         id="path34" />
      <path
         d="m 23554.9,14256.1 c 17.8,11.5 41.5,6.4 53,-11.4 11.5,-17.8 6.4,-41.6 -11.4,-53.1 -17.8,-11.5 -41.6,-6.3 -53.1,11.5 -11.5,17.8 -6.3,41.5 11.5,53"
         style="fill:#eac3a0;fill-opacity:1;fill-rule:nonzero;stroke:none"
         id="path36" />
      <path
         d="m 23686.3,13929.9 c 21.1,0 38.3,-17.2 38.3,-38.3 0,-21.2 -17.2,-38.4 -38.3,-38.4 -21.2,0 -38.4,17.2 -38.4,38.4 0,21.1 17.2,38.3 38.4,38.3"
         style="fill:#eac3a0;fill-opacity:1;fill-rule:nonzero;stroke:none"
         id="path38" />
      <path
         d="m 23619.2,13551.4 c 15,-15 15,-39.3 0,-54.3 -15,-15 -39.3,-15 -54.3,0 -15,15 -15,39.3 0,54.3 15,15 39.3,15 54.3,0"
         style="fill:#eac3a0;fill-opacity:1;fill-rule:nonzero;stroke:none"
         id="path40" />
      <path
         d="m 23378.2,13309.8 c 15,-15 15,-39.3 0,-54.3 -15,-14.9 -39.3,-14.9 -54.3,0 -14.9,15 -14.9,39.3 0,54.3 15,15 39.3,15 54.3,0"
         style="fill:#eac3a0;fill-opacity:1;fill-rule:nonzero;stroke:none"
         id="path42" />
      <path
         d="m 22980,13185.3 c 0,21.2 17.2,38.4 38.3,38.4 21.2,0 38.4,-17.2 38.4,-38.4 0,-21.2 -17.2,-38.4 -38.4,-38.4 -21.1,0 -38.3,17.2 -38.3,38.4"
         style="fill:#eac3a0;fill-opacity:1;fill-rule:nonzero;stroke:none"
         id="path44" />
      <path
         d="m 22745.9,14466.9 c -10.3,18.5 -33.7,25.2 -52.2,14.9 -18.5,-10.3 -25.2,-33.7 -14.9,-52.2 10.3,-18.5 33.7,-25.2 52.2,-14.9 18.5,10.3 25.2,33.6 14.9,52.2"
         style="fill:#eac3a0;fill-opacity:1;fill-rule:nonzero;stroke:none"
         id="path46" />
      <path
         d="m 22480.6,14256.1 c -17.8,11.5 -41.5,6.4 -53,-11.4 -11.5,-17.8 -6.4,-41.6 11.4,-53.1 17.8,-11.5 41.6,-6.3 53.1,11.5 11.4,17.8 6.3,41.5 -11.5,53"
         style="fill:#eac3a0;fill-opacity:1;fill-rule:nonzero;stroke:none"
         id="path48" />
      <path
         d="m 22349.2,13929.9 c -21.2,0 -38.4,-17.2 -38.4,-38.3 0,-21.2 17.2,-38.4 38.4,-38.4 21.2,0 38.4,17.2 38.4,38.4 0,21.1 -17.2,38.3 -38.4,38.3"
         style="fill:#eac3a0;fill-opacity:1;fill-rule:nonzero;stroke:none"
         id="path50" />
      <path
         d="m 22416.3,13551.4 c -15,-15 -15,-39.3 0,-54.3 15,-15 39.3,-15 54.3,0 15,15 15,39.3 0,54.3 -15,15 -39.3,15 -54.3,0"
         style="fill:#eac3a0;fill-opacity:1;fill-rule:nonzero;stroke:none"
         id="path52" />
      <path
         d="m 22657.3,13309.8 c -15,-15 -15,-39.3 0,-54.3 14.9,-14.9 39.2,-14.9 54.2,0 15,15 15,39.3 0,54.3 -15,15 -39.3,15 -54.2,0"
         style="fill:#eac3a0;fill-opacity:1;fill-rule:nonzero;stroke:none"
         id="path54" />
      <path
         d="m 23008,13891.6 c 0,21.1 17.2,38.3 38.4,38.3 21.2,0 38.3,-17.2 38.3,-38.3 0,-21.2 -17.1,-38.4 -38.3,-38.4 -21.2,0 -38.4,17.2 -38.4,38.4"
         style="fill:#eac3a0;fill-opacity:1;fill-rule:nonzero;stroke:none"
         id="path56" />
      <path
         d="m 23051.6,13891.6 h -10.5 v 479.3 h 10.5 v -479.3"
         style="fill:#eac3a0;fill-opacity:1;fill-rule:nonzero;stroke:none"
         id="path58" />
      <path
         d="m 23051.2,13879.9 -19.4,24.7 254.2,199.5 19.4,-24.7 -254.2,-199.5"
         style="fill:#eac3a0;fill-opacity:1;fill-rule:nonzero;stroke:none"
         id="path60" />
      <path
         d="m 7976.45,6069.7 v -106.8 c 0,-37.3 -12.1,-67.8 -26.86,-67.8 H 4055.06 c -14.76,0 -26.86,30.5 -26.86,67.8 v 106.8 c 0,37.3 12.1,67.8 26.86,67.8 h 3894.53 c 14.76,0 26.86,-30.5 26.86,-67.8"
         style="fill:#d39e7a;fill-opacity:1;fill-rule:nonzero;stroke:none"
         id="path62" />
      <path
         d="m 7976.45,6069.7 v -106.8 c 0,-37.3 -11.11,-67.8 -24.65,-67.8 H 4859.96 c -13.54,0 -24.65,30.5 -24.65,67.8 v 106.8 c 0,37.3 11.11,67.8 24.65,67.8 H 7951.8 c 13.54,0 24.65,-30.5 24.65,-67.8"
         style="fill:#efcbab;fill-opacity:1;fill-rule:nonzero;stroke:none"
         id="path64" />
      <path
         d="M 6990.74,1865.1 H 4225.87 V 5895 H 6990.74 V 1865.1"
         style="fill:#eac3a0;fill-opacity:1;fill-rule:nonzero;stroke:none"
         id="path66" />
      <path
         d="M 7765.57,1865.1 H 5000.69 V 5895 H 7765.57 V 1865.1"
         style="fill:#f9ddbf;fill-opacity:1;fill-rule:nonzero;stroke:none"
         id="path68" />
      <path
         d="M 5175.94,2114.2 H 7590.38 V 5754.5 H 5175.94 Z m 2441.09,-26.6 H 5149.3 V 5781.2 H 7617.03 V 2087.6"
         style="fill:#eac3a0;fill-opacity:1;fill-rule:nonzero;stroke:none"
         id="path70" />
      <path
         d="M 7603.71,4532.7 H 5162.62 v 26.6 h 2441.09 v -26.6"
         style="fill:#eac3a0;fill-opacity:1;fill-rule:nonzero;stroke:none"
         id="path72" />
      <path
         d="M 7603.71,3287 H 5162.62 v 26.6 H 7603.71 V 3287"
         style="fill:#eac3a0;fill-opacity:1;fill-rule:nonzero;stroke:none"
         id="path74" />
      <path
         d="m 6633.3,5543 h -452.98 c -21.98,0 -39.96,18 -39.96,39.9 0,22 17.98,40 39.96,40 h 452.98 c 21.98,0 39.97,-18 39.97,-40 0,-21.9 -17.99,-39.9 -39.97,-39.9"
         style="fill:#eac3a0;fill-opacity:1;fill-rule:nonzero;stroke:none"
         id="path76" />
      <path
         d="m 6633.3,4324.8 h -452.98 c -21.98,0 -39.96,18 -39.96,40 0,22 17.98,40 39.96,40 h 452.98 c 21.98,0 39.97,-18 39.97,-40 0,-22 -17.99,-40 -39.97,-40"
         style="fill:#eac3a0;fill-opacity:1;fill-rule:nonzero;stroke:none"
         id="path78" />
      <path
         d="m 6633.3,3055 h -452.98 c -21.98,0 -39.96,18 -39.96,40 0,22 17.98,39.9 39.96,39.9 h 452.98 c 21.98,0 39.97,-17.9 39.97,-39.9 0,-22 -17.99,-40 -39.97,-40"
         style="fill:#eac3a0;fill-opacity:1;fill-rule:nonzero;stroke:none"
         id="path80" />
      <path
         d="m 23098.1,1911.1 h 4.8 c 28.2,0 51,23.3 50.3,51.6 l -76.3,3308.6 -224.9,26.2 191.8,-3335.1 c 1.6,-28.8 25.4,-51.3 54.3,-51.3"
         style="fill:#eac3a0;fill-opacity:1;fill-rule:nonzero;stroke:none"
         id="path82" />
      <path
         d="m 24408.4,1911.1 h 4.8 c 28.3,0 51,23.3 50.4,51.6 l -76.4,3308.6 -224.8,26.2 191.7,-3335.1 c 1.7,-28.8 25.5,-51.3 54.3,-51.3"
         style="fill:#eac3a0;fill-opacity:1;fill-rule:nonzero;stroke:none"
         id="path84" />
      <path
         d="m 20792.6,1911.1 h -4.8 c -28.3,0 -51,23.3 -50.3,51.6 l 76.3,3308.6 224.9,26.2 -191.8,-3335.1 c -1.7,-28.8 -25.5,-51.3 -54.3,-51.3"
         style="fill:#eac3a0;fill-opacity:1;fill-rule:nonzero;stroke:none"
         id="path86" />
      <path
         d="m 24557.4,5476.5 v 2267.2 c 0,398.9 -323.4,722.4 -722.3,722.4 h -1633.5 c -398.9,0 -722.3,-323.5 -722.3,-722.4 V 5389.8 l 3078.1,86.7"
         style="fill:#efcbab;fill-opacity:1;fill-rule:nonzero;stroke:none"
         id="path88" />
      <path
         d="m 21186.6,5118.5 h 3153.9 c 119.8,0 216.9,97.1 216.9,216.9 v 141.1 h -3370.8 v -358"
         style="fill:#eac3a0;fill-opacity:1;fill-rule:nonzero;stroke:none"
         id="path90" />
      <path
         d="m 20808.7,5118.5 h 2386 c 88.6,0 160.4,71.8 160.4,160.4 v 37.2 c 0,88.6 -71.8,160.4 -160.4,160.4 h -2386 c -88.6,0 -160.4,-71.8 -160.4,-160.4 v -37.2 c 0,-88.6 71.8,-160.4 160.4,-160.4"
         style="fill:#f9ddbf;fill-opacity:1;fill-rule:nonzero;stroke:none"
         id="path92" />
      <path
         d="m 26130.6,1841.9 h 6.3 c 37.4,0 67.5,32.6 66.6,72.1 l -101,4632.5 -297.3,36.8 253.6,-4669.6 c 2.2,-40.3 33.7,-71.8 71.8,-71.8"
         style="fill:#d39e7a;fill-opacity:1;fill-rule:nonzero;stroke:none"
         id="path94" />
      <path
         d="m 18878.2,1841.9 h -6.3 c -37.4,0 -67.5,32.6 -66.6,72.1 l 101,4632.5 297.3,36.8 -253.6,-4669.6 c -2.1,-40.3 -33.7,-71.8 -71.8,-71.8"
         style="fill:#d39e7a;fill-opacity:1;fill-rule:nonzero;stroke:none"
         id="path96" />
      <path
         d="m 26690.8,6461.3 h -8194.3 c -63.6,0 -115.2,51.6 -115.2,115.2 v 93.4 c 0,63.6 51.6,115.1 115.2,115.1 h 8194.3 c 63.6,0 115.2,-51.5 115.2,-115.1 v -93.4 c 0,-63.6 -51.6,-115.2 -115.2,-115.2"
         style="fill:#d39e7a;fill-opacity:1;fill-rule:nonzero;stroke:none"
         id="path98" />
      <path
         d="m 19862.7,6987.5 h -738.9 v 260.9 h 741.2 c 57.7,0 104.4,-46.7 104.4,-104.3 v -49.9 c 0,-58.9 -47.8,-106.7 -106.7,-106.7"
         style="fill:#fcecdb;fill-opacity:1;fill-rule:nonzero;stroke:none"
         id="path100" />
      <path
         d="m 20600,7141.1 v -39.3 c 0,-21 -5.6,-40.6 -15.5,-57.5 -19.8,-34 -56.6,-56.8 -98.8,-56.8 h -1384.5 c -9.2,0 -16.6,7.4 -16.6,16.6 v 5.8 c 0,9.2 7.4,16.6 16.6,16.6 h 844 c 4.5,5.5 8.5,11.5 11.8,17.8 7.9,14.9 12.4,31.9 12.4,49.9 v 49.9 c 0,9.2 -1.2,18.1 -3.4,26.6 -3.8,14.3 -10.6,27.5 -19.6,38.7 h -845.2 c -9.2,0 -16.6,7.4 -16.6,16.6 v 5.9 c 0,9.1 7.4,16.5 16.6,16.5 h 1391.5 c 49,0 90.4,-32.8 103.2,-77.7 2.7,-9.4 4.1,-19.4 4.1,-29.6"
         style="fill:#699dee;fill-opacity:1;fill-rule:nonzero;stroke:none"
         id="path102" />
      <path
         d="M 20595.9,7170.7 H 19966 c -3.8,14.3 -10.6,27.5 -19.6,38.7 h -845.2 c -9.2,0 -16.6,7.4 -16.6,16.6 v 5.9 c 0,9.1 7.4,16.5 16.6,16.5 h 1391.5 c 49,0 90.4,-32.8 103.2,-77.7"
         style="fill:#548ee2;fill-opacity:1;fill-rule:nonzero;stroke:none"
         id="path104" />
      <path
         d="m 19123.8,7118 102.5,-4.4 -102.5,-2.7 z"
         style="fill:#f4d2b8;fill-opacity:1;fill-rule:nonzero;stroke:none"
         id="path106" />
      <path
         d="m 19123.8,7077 243.9,-4.4 -243.9,-2.6 z"
         style="fill:#f4d2b8;fill-opacity:1;fill-rule:nonzero;stroke:none"
         id="path108" />
      <path
         d="m 19300,6785 h 786.6 v 203 h -793 c -54.2,0 -98.3,-44 -98.3,-98.3 0,-57.8 46.9,-104.7 104.7,-104.7"
         style="fill:#b5453c;fill-opacity:1;fill-rule:nonzero;stroke:none"
         id="path110" />
      <path
         d="m 20041.4,6785 h 895.2 v 203 h -897.4 c -55.2,0 -100,-44.7 -100,-99.9 v -0.8 c 0,-56.5 45.8,-102.3 102.2,-102.3"
         style="fill:#fcecdb;fill-opacity:1;fill-rule:nonzero;stroke:none"
         id="path112" />
      <path
         d="m 19879.4,6785 h 1088.3 c 8.4,0 15.2,6.8 15.2,15.2 0,8.4 -6.8,15.2 -15.2,15.2 h -1088.3 c -8.3,0 -15.1,-6.8 -15.1,-15.2 0,-8.4 6.8,-15.2 15.1,-15.2"
         style="fill:#b5453c;fill-opacity:1;fill-rule:nonzero;stroke:none"
         id="path114" />
      <path
         d="m 19879.4,6957.7 h 1088.3 c 8.4,0 15.2,6.8 15.2,15.2 0,8.3 -6.8,15.1 -15.2,15.1 h -1088.3 c -8.3,0 -15.1,-6.8 -15.1,-15.1 0,-8.4 6.8,-15.2 15.1,-15.2"
         style="fill:#b5453c;fill-opacity:1;fill-rule:nonzero;stroke:none"
         id="path116" />
      <path
         d="m 20936.6,6886.5 -120.9,-3.4 120.9,-2 z"
         style="fill:#f4d2b8;fill-opacity:1;fill-rule:nonzero;stroke:none"
         id="path118" />
      <path
         d="m 20936.6,6933.3 -287.7,-3.5 287.7,-2 z"
         style="fill:#f4d2b8;fill-opacity:1;fill-rule:nonzero;stroke:none"
         id="path120" />
      <path
         d="m 20651.9,6930.5 c 0,0 12.3,-8.7 16.4,-23 0.7,-2.5 1.2,-5.2 1.3,-8.1 0.6,-19 0,-62.1 0,-62.1 l 36.4,21.5 36.3,-21.5 v 58.4 c 0,11.1 -3.1,21.8 -8.9,28.8 -2.8,3.4 -6.2,6 -10.1,6 h -71.4"
         style="fill:#699dee;fill-opacity:1;fill-rule:nonzero;stroke:none"
         id="path122" />
      <path
         d="m 20651.9,6930.5 c 0,0 12.3,-8.7 16.4,-23 l 72.9,-0.9 c 0,0 -2.8,20.5 -17.9,23.9 h -71.4"
         style="fill:#568cdb;fill-opacity:1;fill-rule:nonzero;stroke:none"
         id="path124" />
      <path
         d="m 20658.5,7248.4 h -422.4 v 195.1 h 426.1 c 31.1,0 56.3,-25.2 56.3,-56.3 v -78.8 c 0,-33.1 -26.9,-60 -60,-60"
         style="fill:#f99746;fill-opacity:1;fill-rule:nonzero;stroke:none"
         id="path126" />
      <path
         d="m 20350.3,7248.4 h -1322.5 v 195.1 h 1324.7 c 51.4,0 93.1,-41.7 93.1,-93.2 v -6.6 c 0,-52.6 -42.7,-95.3 -95.3,-95.3"
         style="fill:#fcecdb;fill-opacity:1;fill-rule:nonzero;stroke:none"
         id="path128" />
      <path
         d="m 20538,7248.4 h -1561.9 c -7.8,0 -14.1,6.3 -14.1,14.1 v 1 c 0,7.8 6.3,14.1 14.1,14.1 H 20538 c 7.8,0 14.1,-6.3 14.1,-14.1 v -1 c 0,-7.8 -6.3,-14.1 -14.1,-14.1"
         style="fill:#f99746;fill-opacity:1;fill-rule:nonzero;stroke:none"
         id="path130" />
      <path
         d="m 20538,7414.3 h -1561.9 c -7.8,0 -14.1,6.3 -14.1,14.1 v 1 c 0,7.8 6.3,14.1 14.1,14.1 H 20538 c 7.8,0 14.1,-6.3 14.1,-14.1 v -1 c 0,-7.8 -6.3,-14.1 -14.1,-14.1"
         style="fill:#f99746;fill-opacity:1;fill-rule:nonzero;stroke:none"
         id="path132" />
      <path
         d="m 25833,6917.3 h -55.8 v 961.4 l 571.2,1457.7 -1019.9,790.3 34.2,44.2 1053,-816 -582.7,-1486.7 v -950.9"
         style="fill:#eac3a0;fill-opacity:1;fill-rule:nonzero;stroke:none"
         id="path134" />
      <path
         d="m 25213.2,10026 v 0 c -25.6,18.2 -31.7,53.8 -13.5,79.4 l 85,119.8 c 18.2,25.7 53.7,31.7 79.4,13.6 25.6,-18.2 31.7,-53.8 13.5,-79.4 l -85,-119.9 c -18.2,-25.6 -53.7,-31.7 -79.4,-13.5"
         style="fill:#eac3a0;fill-opacity:1;fill-rule:nonzero;stroke:none"
         id="path136" />
      <path
         d="m 26295.4,9353.1 c 0,40.9 33.1,74 73.9,74 40.9,0 74,-33.1 74,-74 0,-40.8 -33.1,-73.9 -74,-73.9 -40.8,0 -73.9,33.1 -73.9,73.9"
         style="fill:#eac3a0;fill-opacity:1;fill-rule:nonzero;stroke:none"
         id="path138" />
      <path
         d="m 25339.7,9196.8 c -2.7,-3 -5.3,-6 -8.1,-8.8 l -0.6,-0.6 c -2.6,-2.9 -5.2,-5.7 -7.8,-8.4 -76.3,-66.2 -329.2,52.5 -573.8,271.2 -244.6,218.7 -390.7,456.9 -333.4,540.1 2.4,2.9 4.8,5.8 7.4,8.7 l 0.6,0.7 c 2.5,3 5.1,6 7.8,9 224.2,250.7 609.2,272.1 859.9,48 250.7,-224.2 272.2,-609.2 48,-859.9"
         style="fill:#f99746;fill-opacity:1;fill-rule:nonzero;stroke:none"
         id="path140" />
      <path
         d="m 25331.6,9188 -0.5,-0.6 c -0.9,-1.1 -1.7,-2.1 -2.5,-3 -1.7,-2 -3.5,-3.7 -5.5,-5.3 -76.2,-66.2 -329.1,52.3 -573.7,271.2 -244.6,218.6 -390.7,456.7 -333.5,539.9 1.6,2.1 3.1,4.2 4.8,6 0.8,1 1.6,2 2.8,2.8 l 0.5,0.7 c 51.9,49.1 192.9,5.3 357.7,-101.3 70,-45.4 144.4,-102.2 218.1,-168.1 57.8,-51.8 110.2,-104.6 155.7,-156.1 148.4,-168.4 223.2,-324 176.1,-386.2"
         style="fill:#f9ddbf;fill-opacity:1;fill-rule:nonzero;stroke:none"
         id="path142" />
      <path
         d="m 25155.5,9574.2 c -43.2,-35.6 -98.6,-56.8 -159,-56.8 -138.6,0 -251,112.4 -251,251 0,47.6 13.3,92.1 36.2,130 70,-45.4 144.4,-102.2 218.1,-168.1 57.8,-51.8 110.2,-104.6 155.7,-156.1"
         style="fill:#fff0e3;fill-opacity:1;fill-rule:nonzero;stroke:none"
         id="path144" />
      <path
         d="m 26076.2,6785 h -561.8 v 56.8 c 0,57 46.2,103.2 103.2,103.2 h 351.2 c 59.3,0 107.4,-48.1 107.4,-107.4 V 6785"
         style="fill:#eac3a0;fill-opacity:1;fill-rule:nonzero;stroke:none"
         id="path146" />
      <path
         d="m 25863.8,6917.3 h -118 v 893.4 h 118 v -893.4"
         style="fill:#eac3a0;fill-opacity:1;fill-rule:nonzero;stroke:none"
         id="path148" />
      <path
         d="m 14435,7650.6 -345.1,-1388.3 2783.5,782.1 z m -641.9,-1694.2 485.8,1953.7 3431.5,-853.1 -3917.3,-1100.6"
         style="fill:#f9ddbf;fill-opacity:1;fill-rule:nonzero;stroke:none"
         id="path150" />
      <path
         d="m 15353.6,6441.1 -158.4,39.4 255.6,1027.9 158.3,-39.4 -255.5,-1027.9"
         style="fill:#eac3a0;fill-opacity:1;fill-rule:nonzero;stroke:none"
         id="path152" />
      <path
         d="M 12828.4,6296 C 12593,4831 12399,3252.2 12483,2420.9 c 69.1,-232.7 283,-310.3 472,-340.5 l -129.9,-141.7 -365.8,-20.9 -488.1,192.4 c 0,0 28.2,96.4 50.6,264.6 25.9,195.4 -64.6,642.1 -64.6,642.1 0,0 -238.1,1542.9 -102.6,1889.3 38.4,98.5 63.8,211.1 79.4,333.5 v 0.1 c 39.9,311.6 17.6,686.2 -8.7,1050.4 -28.5,395.6 -61.5,778.7 -24.1,1055.3 170.6,1262.3 172.6,2354 172.6,2354 h 957.9 c 0,0 271.4,-771.1 144.9,-1432.2 -107.4,-562.1 -232.8,-1253 -348.2,-1971.3"
         style="fill:#ffb27d;fill-opacity:1;fill-rule:nonzero;stroke:none"
         id="path154" />
      <path
         d="m 11934,5239.8 c 39.9,311.6 17.6,686.2 -8.7,1050.4 l 707.2,286 195.9,-280.2 c -30,-36.8 -556.3,-657.5 -894.4,-1056.2"
         style="fill:#f3a36c;fill-opacity:1;fill-rule:nonzero;stroke:none"
         id="path156" />
      <path
         d="m 14686,10667.5 c 0,0 108.5,114.7 186.1,171.4 77.7,56.8 295.7,113.5 317.9,18.3 9.8,-42.4 -66.8,-136 -121.9,-169.4 -55.2,-33.4 -63.7,-75.9 -122.4,-135.6 -58.6,-59.7 -202,-62.7 -202,-62.7 l -57.7,178"
         style="fill:#ffb27d;fill-opacity:1;fill-rule:nonzero;stroke:none"
         id="path158" />
      <path
         d="m 11498.6,11615.3 c -45.6,88 995.7,405 1012.2,-463.7 0,0 1950.7,47.9 1019.3,1135.2 -322.5,376.4 -289.3,687.6 -279.6,977.3 9.8,289.7 -200.9,1131.8 -922.9,1047 0,0 -189.1,76.9 -425,-45.5 -536.7,-278.4 -1738.8,-2970.7 -404,-2650.3"
         style="fill:#233862;fill-opacity:1;fill-rule:nonzero;stroke:none"
         id="path160" />
      <path
         d="m 12851.4,10581.6 c 0,0 69,-136.7 194.2,-293.7 150.9,-189 383.5,-407.3 675.6,-450.4 139.6,-20.6 276,9.4 401.4,65.2 l 0.5,0.1 c 354.7,157.5 621.5,519.6 621.5,519.6 62.5,170.6 -39.8,286.2 -39.8,286.2 0,0 -716.3,-161.1 -784.6,-127 -68.2,34.1 -466.2,1180.6 -560.9,1324.6 -94.8,144.1 -417.7,218.9 -417.7,218.9 l -90.2,-1543.5"
         style="fill:#adc8fe;fill-opacity:1;fill-rule:nonzero;stroke:none"
         id="path162" />
      <path
         d="m 13045.6,10287.9 c 150.9,-189 383.5,-407.3 675.6,-450.4 139.6,-20.6 276,9.4 401.4,65.2 -13.8,-1.9 -368.2,-45.6 -509.4,207 -144,257.8 -299.8,667.1 -513.8,530.7 -92.3,-58.9 -88.2,-205.3 -53.8,-352.5"
         style="fill:#8eb3ef;fill-opacity:1;fill-rule:nonzero;stroke:none"
         id="path164" />
      <path
         d="m 10831.5,1851.7 c 0,0 -234,0 -330.1,0 -95.9,0 -205.2,73.5 -231.9,246.8 -26.6,173.2 -223.8,267.7 -266.5,409.4 -29.26,97.3 39.9,166.9 105.5,220.4 30,24.6 59.3,45.8 77.9,64.6 67.1,67.8 130.5,360.5 130.5,360.5 l 348.1,-183.2 c 0,0 -164,-278.8 -69.4,-592.4 44.2,-146.6 83.7,-281.7 181.6,-366 23,-19.9 49.4,-36.9 79.8,-50.6 152.2,-68.8 -25.5,-109.5 -25.5,-109.5"
         style="fill:#ffb27d;fill-opacity:1;fill-rule:nonzero;stroke:none"
         id="path166" />
      <path
         d="m 11084.2,11151.6 c 0,0 -18.3,-258 0,-567.7 12.2,-205.2 219.8,-480.1 249.3,-548.1 73.9,-170.5 157.2,-198.3 157.2,-198.3 l 644.8,-158 226.8,-55.5 714.9,213.5 c 0,0 325.7,909 194.9,1420.6 -130.7,511.7 -330.5,867 -330.5,867 0,0 -822,213.8 -1458.8,27.8 l -398.6,-1001.3"
         style="fill:#adc8fe;fill-opacity:1;fill-rule:nonzero;stroke:none"
         id="path168" />
      <path
         d="m 11531.6,9732.4 c 0,0 -540.1,-724.7 -590.4,-1214.5 -50.4,-489.9 427.2,-1845.8 320,-2323.4 -79.7,-354.4 -504.1,-635.6 -621.3,-1529.2 -40.7,-310.4 -187.6,-931.2 -323.1,-1512 l 299.3,-293.7 c 712.8,1624.5 1449.8,2647.2 1493.3,3006.4 30.8,254.2 175.3,1591.4 759.9,2578.5 140.4,237 -86.1,1179.5 -86.1,1179.5 l -1251.6,108.4"
         style="fill:#ffb27d;fill-opacity:1;fill-rule:nonzero;stroke:none"
         id="path170" />
      <path
         d="m 13210.2,8064.2 c -79.4,-967.6 -172.8,-1782.7 -172.8,-1782.7 0,0 -451.2,-304 -1089.7,-342.7 l -0.1,-0.1 h -0.1 c -291.7,-17.6 -622.5,20 -967.1,167.3 0,0 -131.4,2336.9 -47.8,2709.1 83.6,372.2 454,884.4 454,884.4 l 1666,-64.4 c 0,0 237,-603.1 157.6,-1570.9"
         style="fill:#f99746;fill-opacity:1;fill-rule:nonzero;stroke:none"
         id="path172" />
      <path
         d="m 13088.3,9869.7 c 0,0 -142.1,-112.5 -424.5,-118.1 -337.3,-6.8 -1173,85.9 -1173,85.9 0,0 -37.2,-103.7 -35.7,-213.3 0,0 1020.8,-257.4 1612.2,-37.6 0,0 76.3,143.5 21,283.1"
         style="fill:#ed7d2b;fill-opacity:1;fill-rule:nonzero;stroke:none"
         id="path174" />
      <path
         d="m 12641.8,9635.1 c 0,-67.9 46.2,-123.2 102.9,-123.2 56.8,0 102.9,55.3 102.9,123.2 0,67.9 -46.1,123.2 -102.9,123.2 -56.7,0 -102.9,-55.3 -102.9,-123.2 z m -51,0 c 0,96 69,174.2 153.9,174.2 84.9,0 153.9,-78.2 153.9,-174.2 0,-96.1 -69,-174.2 -153.9,-174.2 -84.9,0 -153.9,78.1 -153.9,174.2"
         style="fill:#ffffff;fill-opacity:1;fill-rule:nonzero;stroke:none"
         id="path176" />
      <path
         d="m 10391.9,9670.3 1045.8,-910.6 1246.5,1431.5 -1045.8,910.6 -1246.5,-1431.5"
         style="fill:#233862;fill-opacity:1;fill-rule:nonzero;stroke:none"
         id="path178" />
      <path
         d="m 11726.6,9667 c 0,0 383.2,-44.8 382,-135.8 -1.2,-90.9 -95.5,-277.8 -142.8,-286.1 -47.3,-8.3 -311.8,252.7 -311.8,252.7 l 72.6,169.2"
         style="fill:#ffb27d;fill-opacity:1;fill-rule:nonzero;stroke:none"
         id="path180" />
      <path
         d="m 11598.5,12173.6 c 0,0 -511.6,-35.9 -707.7,-512.6 -196.1,-476.7 -568.1,-1277.1 -568.1,-1411.7 0,-134.7 207.8,-549.8 1324,-788.4 0,0 115.4,121.4 108.4,217.5 0,0 -696.7,598.4 -694.8,668.4 3.5,132.3 114.2,307 725.9,918.9 166.3,166.3 -187.7,907.9 -187.7,907.9"
         style="fill:#adc8fe;fill-opacity:1;fill-rule:nonzero;stroke:none"
         id="path182" />
      <path
         d="m 14612.1,9302 1533,4505.9 c 7.1,20.5 16.5,40.2 -3.9,47.6 l -18.6,6.8 c -20.9,7.6 -27,-5.9 -34.6,-26.8 L 14453.8,9394.3 c -15.4,-42.4 4.6,-89.5 45.9,-107.9 l 37.8,-16.8 c 29.6,-13.2 64.1,1.8 74.6,32.4"
         style="fill:#f9ddbf;fill-opacity:1;fill-rule:nonzero;stroke:none"
         id="path184" />
      <path
         d="m 14820.4,10689.6 c 0,0 69.6,2.2 143.3,21.5 58,15.2 132.5,42.2 132.5,42.2 43.8,-31.9 -108.3,-118.8 -147.1,-178.2 -31.7,-48.5 -67.7,-62.5 -155.1,-81.3 l 26.4,195.8"
         style="fill:#ffb27d;fill-opacity:1;fill-rule:nonzero;stroke:none"
         id="path186" />
      <path
         d="m 12370.1,1864.7 c 213.1,26.4 156.8,-28 455.6,-29.8 298.7,-1.8 400.9,97.7 415,140.5 12.6,38 -131.5,68.8 -285.7,105 l -5.5,-3.9 c 0,0 -187.8,-103.7 -434,-80.9 -200.7,18.5 -405.9,100.6 -544.4,114.5 -8.4,-45.4 -16.9,-91.8 -13,-138.7 10.8,-133.2 198.8,-133.1 412,-106.7"
         style="fill:#233862;fill-opacity:1;fill-rule:nonzero;stroke:none"
         id="path188" />
      <path
         d="m 10831.5,1851.7 c 0,0 -234,0 -330.1,0 -95.9,0 -205.2,73.5 -231.9,246.8 -26.6,173.2 -223.8,267.7 -266.5,409.4 -29.26,97.3 39.9,166.9 105.5,220.4 36.2,-54.4 114.6,-190.1 191.4,-440.1 89.7,-292.3 304.8,-300.6 477.3,-276.4 23,-19.9 49.4,-36.9 79.8,-50.6 152.2,-68.8 -25.5,-109.5 -25.5,-109.5"
         style="fill:#233862;fill-opacity:1;fill-rule:nonzero;stroke:none"
         id="path190" />
      <path
         d="m 11678.9,12198.3 c 103.7,23 189.5,95.8 225.2,195.8 43,120.5 77.2,298.3 76.4,521.2 l 32.4,-6.4 544.3,-107.7 c 0,0 -12.4,-171.3 -12.7,-332.7 0,-1.4 -0.1,-2.7 -0.1,-4 -0.6,-140.2 91.3,-263.9 226,-302.8 68.7,-19.8 -327.9,-542 -373.2,-531.7 -94.4,21.4 -751.1,560.9 -718.3,568.3"
         style="fill:#ffb27d;fill-opacity:1;fill-rule:nonzero;stroke:none"
         id="path192" />
      <path
         d="m 12557.2,12801.2 c 0,0 -12.4,-171.3 -12.7,-332.7 -304.6,8.6 -465.6,286.4 -531.6,440.4 l 544.3,-107.7"
         style="fill:#e8945b;fill-opacity:1;fill-rule:nonzero;stroke:none"
         id="path194" />
      <path
         d="m 12658.9,12648.4 c 0,0 -720.6,-11.9 -721.1,437 -0.5,448.9 -93.9,749.7 366.2,776.3 460.1,26.5 549.7,-144.7 586.3,-294.5 36.6,-149.8 -43.9,-904.2 -231.4,-918.8"
         style="fill:#ffb27d;fill-opacity:1;fill-rule:nonzero;stroke:none"
         id="path196" />
      <path
         d="m 12632.3,13872.7 c 0,0 -197.4,-526.7 -500.2,-604.6 -302.8,-77.8 -434.2,3.3 -434.2,3.3 0,0 232.3,184.5 280.5,506.6 0,0 505,345.3 653.9,94.7"
         style="fill:#233862;fill-opacity:1;fill-rule:nonzero;stroke:none"
         id="path198" />
      <path
         d="m 12583.4,13829.9 c 0,0 146.3,-54.7 206.5,-161.4 58.9,-104.4 109.1,-242.6 97.4,-412.1 0,0 148.7,357.9 -18.4,560.4 -177.1,214.8 -285.5,13.1 -285.5,13.1"
         style="fill:#233862;fill-opacity:1;fill-rule:nonzero;stroke:none"
         id="path200" />
      <path
         d="m 12518.1,12914.8 c 0,0 12.5,-52.9 144.1,-44.7 0,0 110.5,6.8 107.1,65 0,0 -107.1,41.3 -251.2,-20.3"
         style="fill:#ffffff;fill-opacity:1;fill-rule:nonzero;stroke:none"
         id="path202" />
      <path
         d="m 12397.2,11630 c 0,0 -487.5,520.7 -505.8,733.5 0,0 -124.2,-34.5 -270.4,-176.8 0,0 117.1,-293.4 257,-390.2 0,0 101.8,14.3 181.9,47.3 0,0 -50.8,-84.4 -91.2,-134.8 0,0 220.9,-125.3 428.5,-79"
         style="fill:#d7e6ff;fill-opacity:1;fill-rule:nonzero;stroke:none"
         id="path204" />
      <path
         d="m 12568,12343.6 c 0,0 192.3,-351.4 -170.8,-713.6 0,0 227.8,43.6 344.9,204.2 0,0 -36.3,86.3 -67.2,106.2 0,0 68.5,27.3 111.4,-12.7 0,0 26.1,188.5 0,245.9 -26,57.3 -161.9,171.8 -218.3,170"
         style="fill:#d7e6ff;fill-opacity:1;fill-rule:nonzero;stroke:none"
         id="path206" />
      <path
         d="m 12360.8,11630 c 0,20.1 16.3,36.3 36.4,36.3 20,0 36.3,-16.2 36.3,-36.3 0,-20.1 -16.3,-36.3 -36.3,-36.3 -20.1,0 -36.4,16.2 -36.4,36.3"
         style="fill:#233862;fill-opacity:1;fill-rule:nonzero;stroke:none"
         id="path208" />
      <path
         d="m 12554.5,11115.3 c 0,20 16.3,36.3 36.3,36.3 20.1,0 36.3,-16.3 36.3,-36.3 0,-20.1 -16.2,-36.3 -36.3,-36.3 -20,0 -36.3,16.2 -36.3,36.3"
         style="fill:#233862;fill-opacity:1;fill-rule:nonzero;stroke:none"
         id="path210" />
      <path
         d="m 12590.8,10511.6 c 0,20.1 16.3,36.3 36.3,36.3 20.1,0 36.3,-16.2 36.3,-36.3 0,-20 -16.2,-36.3 -36.3,-36.3 -20,0 -36.3,16.3 -36.3,36.3"
         style="fill:#233862;fill-opacity:1;fill-rule:nonzero;stroke:none"
         id="path212" />
      <path
         d="m 13210.2,8064.2 c -79.4,-967.6 -172.8,-1782.7 -172.8,-1782.7 0,0 -451.2,-304 -1089.7,-342.7 11.3,4.3 374.4,144.2 643.1,458.8 273,319.5 619.4,1666.6 619.4,1666.6"
         style="fill:#ed7d2b;fill-opacity:1;fill-rule:nonzero;stroke:none"
         id="path214" />
      <path
         d="m 17552.7,14873.1 h -67.4 l -36.9,87.7 h -171.8 l -37.4,-87.7 h -65.4 l 159.9,366 h 59.2 l 159.8,-366 m -190.5,289.6 -62.3,-145.3 h 125.1 l -62.8,145.3"
         style="fill:#cde1c9;fill-opacity:1;fill-rule:nonzero;stroke:none"
         id="path216" />
      <path
         d="m 18102.5,14873.1 h -168.2 v 363.4 h 163 c 41.5,0 74.2,-11.5 95,-32.2 16.1,-16.1 24.4,-35.8 24.4,-61.3 0,-43.6 -25,-66.9 -52,-81 42.6,-14.5 72.2,-38.9 72.2,-89.2 0,-64.9 -53.5,-99.7 -134.4,-99.7 m -105.4,156.2 v -99.6 h 105.9 c 43.6,0 70.1,17.1 70.1,50.8 0,30.7 -24.4,48.8 -74.8,48.8 h -101.2 m 0,150.6 v -96.6 h 87.2 c 41,0 68.5,16.1 68.5,50.4 0,28.5 -22.8,46.2 -63.8,46.2 h -91.9"
         style="fill:#cde1c9;fill-opacity:1;fill-rule:nonzero;stroke:none"
         id="path218" />
      <path
         d="m 18797,14866.9 c -105.9,0 -184.8,82.5 -184.8,187.9 0,103.3 77.4,187.9 187.4,187.9 67,0 107.5,-23.4 142.2,-56.6 l -41,-47.2 c -29.1,27 -60.2,45.1 -101.7,45.1 -69.6,0 -119.9,-57.1 -119.9,-129.2 0,-71.1 50.3,-129.3 119.9,-129.3 44.6,0 73.2,18.2 104.3,47.3 l 41,-41.6 c -37.9,-39.4 -79.4,-64.3 -147.4,-64.3"
         style="fill:#cde1c9;fill-opacity:1;fill-rule:nonzero;stroke:none"
         id="path220" />
      <path
         d="m 17014.2,14057.4 h -135.5 v 363.4 h 135.5 c 114.2,0 193.1,-78.4 193.1,-181.7 0,-102.3 -78.9,-181.7 -193.1,-181.7 m -71.7,305.2 v -247 h 71.7 c 76.3,0 126.1,51.3 126.1,123.5 0,71.1 -49.8,123.5 -126.1,123.5 h -71.7"
         style="fill:#cde1c9;fill-opacity:1;fill-rule:nonzero;stroke:none"
         id="path222" />
      <path
         d="m 17875.9,14057.4 h -272 v 363.4 h 269.4 v -57.1 h -205.6 v -94.5 h 182.2 v -57.1 h -182.2 v -97.6 h 208.2 v -57.1"
         style="fill:#cde1c9;fill-opacity:1;fill-rule:nonzero;stroke:none"
         id="path224" />
      <path
         d="m 18334.7,14057.4 h -63.8 v 363.4 h 270.4 v -58.2 h -206.6 v -99.1 h 183.3 v -58.1 h -183.3 v -148"
         style="fill:#cde1c9;fill-opacity:1;fill-rule:nonzero;stroke:none"
         id="path226" />
      <path
         d="m 19103,14051.2 c -113.7,0 -188.4,81 -188.4,187.9 0,101.7 77.8,187.9 187.4,187.9 63.3,0 102.2,-17.6 139.6,-49.3 l -40.5,-48.3 c -28,23.9 -55.5,39 -101.7,39 -67,0 -117.9,-58.7 -117.9,-129.3 0,-74.8 49.4,-129.8 123.6,-129.8 34.2,0 65.4,10.9 87.7,27.5 v 68 h -92.9 v 55.6 h 154.7 v -152.6 c -35.8,-30.7 -87.2,-56.6 -151.6,-56.6"
         style="fill:#cde1c9;fill-opacity:1;fill-rule:nonzero;stroke:none"
         id="path228" />
      <path
         d="m 16997.3,13241.7 h -63.8 v 153.2 h -173.4 v -153.2 h -63.9 v 363.4 h 63.9 v -151 h 173.4 v 151 h 63.8 v -363.4"
         style="fill:#cde1c9;fill-opacity:1;fill-rule:nonzero;stroke:none"
         id="path230" />
      <path
         d="m 17413.6,13241.7 h 63.898 v 363.367 h -63.898 z"
         style="fill:#cde1c9;fill-opacity:1;fill-rule:nonzero;stroke:none"
         id="path232" />
      <path
         d="m 17974.2,13236.6 c -56,0 -92.4,25.9 -116.2,58.6 l 42,43.1 c 21.3,-27 42.6,-42.6 73.2,-42.6 34.3,0 57.6,22.9 57.6,71.1 v 238.3 h 65.4 v -239.8 c 0,-43.1 -12.4,-75.3 -33.7,-96.6 -21.3,-21.3 -51.9,-32.1 -88.3,-32.1"
         style="fill:#cde1c9;fill-opacity:1;fill-rule:nonzero;stroke:none"
         id="path234" />
      <path
         d="m 18825,13241.7 h -77.3 l -124.1,163.6 -56.6,-58.2 v -105.4 h -63.8 v 363.4 h 63.8 v -182.7 l 172.9,182.7 h 78.4 l -151.1,-156.2 157.8,-207.2"
         style="fill:#cde1c9;fill-opacity:1;fill-rule:nonzero;stroke:none"
         id="path236" />
      <path
         d="m 19453.7,13241.7 h -254.9 v 363.4 h 63.8 v -305.2 h 191.1 v -58.2"
         style="fill:#cde1c9;fill-opacity:1;fill-rule:nonzero;stroke:none"
         id="path238" />
      <path
         d="m 17162.1,12426.1 h -63.8 v 260.6 l -114.7,-171.3 h -2.1 l -113.7,170.2 v -259.5 h -62.8 v 363.3 h 68 l 110.6,-171.8 110.5,171.8 h 68 v -363.3"
         style="fill:#cde1c9;fill-opacity:1;fill-rule:nonzero;stroke:none"
         id="path240" />
      <path
         d="m 17891.4,12426.1 h -53.4 l -200.4,258.5 v -258.5 h -62.8 v 363.3 h 59.2 l 194.6,-251.2 v 251.2 h 62.8 v -363.3"
         style="fill:#cde1c9;fill-opacity:1;fill-rule:nonzero;stroke:none"
         id="path242" />
      <path
         d="m 18477.5,12419.8 c -111.6,0 -189.5,84.6 -189.5,188 0,102.2 78.9,187.9 190.5,187.9 111.6,0 189.5,-84.6 189.5,-187.9 0,-102.3 -78.9,-188 -190.5,-188 m 0,317.2 c -72.2,0 -122.5,-57.6 -122.5,-129.2 0,-70.6 51.4,-129.3 123.5,-129.3 72.2,0 122.5,57.6 122.5,129.3 0,70.6 -51.3,129.2 -123.5,129.2"
         style="fill:#cde1c9;fill-opacity:1;fill-rule:nonzero;stroke:none"
         id="path244" />
      <path
         d="m 19128.4,12426.1 h -63.8 v 363.3 h 143.3 c 84.6,0 138,-48.2 138,-122.5 0,-81.5 -65.4,-124 -145.3,-124 h -72.2 v -116.8 m 0,305.2 v -130.8 h 74.3 c 48.2,0 78.4,27 78.4,65.9 0,42.6 -30.7,64.9 -78.4,64.9 h -74.3"
         style="fill:#cde1c9;fill-opacity:1;fill-rule:nonzero;stroke:none"
         id="path246" />
      <path
         d="m 17214.3,11599.5 -43.6,38.9 c -30.6,-21.8 -68,-34.2 -110.6,-34.2 -111.6,0 -189.5,84.6 -189.5,187.9 0,102.2 79,187.9 190.6,187.9 111.6,0 189.4,-84.6 189.4,-187.9 0,-41 -12.9,-80 -36.8,-111.6 l 41.5,-35.3 -41,-45.7 m -154.2,321.8 c -72.1,0 -122.5,-57.6 -122.5,-129.2 0,-70.6 51.4,-129.3 123.6,-129.3 23.8,0 45.1,6.8 62.2,17.7 l -62.2,52.9 41,46.7 62.8,-57.1 c 12.4,19.2 18.7,42.6 18.7,69.1 0,70.6 -51.4,129.2 -123.6,129.2"
         style="fill:#cde1c9;fill-opacity:1;fill-rule:nonzero;stroke:none"
         id="path248" />
      <path
         d="m 17955.6,11610.4 h -75.3 l -90.3,126.7 h -78.9 v -126.7 h -63.9 v 363.4 h 162 c 85.1,0 134.9,-45.7 134.9,-115.8 0,-59.7 -35.8,-95.5 -86.7,-110 l 98.2,-137.6 m -244.5,305.2 v -122 h 93.4 c 45.7,0 74.7,23.9 74.7,61.8 0,38.9 -28,60.2 -75.2,60.2 h -92.9"
         style="fill:#cde1c9;fill-opacity:1;fill-rule:nonzero;stroke:none"
         id="path250" />
      <path
         d="m 18468.9,11605.2 c -55.5,0 -107.9,19.2 -151.5,58.1 l 38.4,45.7 c 34.8,-30.1 69.5,-47.2 114.7,-47.2 39.5,0 64.4,18.1 64.4,46.7 0,26 -14.6,40 -82,56.1 -77.4,18.1 -121,41 -121,109 0,62.3 51.9,105.4 124.1,105.4 52.9,0 95,-16.1 131.8,-45.7 l -34.2,-48.3 c -32.8,24.4 -65.5,37.4 -98.7,37.4 -37.4,0 -59.2,-19.2 -59.2,-44.2 0,-28 16.6,-40.4 86.2,-57 76.8,-18.7 116.8,-46.3 116.8,-107.5 0,-68 -53.5,-108.5 -129.8,-108.5"
         style="fill:#cde1c9;fill-opacity:1;fill-rule:nonzero;stroke:none"
         id="path252" />
      <path
         d="m 19146.9,11610.4 h -64.4 v 304.2 h -115.2 v 59.2 h 294.8 v -59.2 h -115.2 v -304.2"
         style="fill:#cde1c9;fill-opacity:1;fill-rule:nonzero;stroke:none"
         id="path254" />
      <path
         d="m 17257.1,10789 c -94.5,0 -154.7,54.5 -154.7,159.9 v 209.2 h 63.9 v -206.6 c 0,-67.5 34.7,-103.8 91.8,-103.8 56.6,0 91.4,34.2 91.4,101.2 v 209.2 h 63.9 V 10952 c 0,-108.5 -61.3,-163 -156.3,-163"
         style="fill:#cde1c9;fill-opacity:1;fill-rule:nonzero;stroke:none"
         id="path256" />
      <path
         d="m 17996.3,10792.1 h -56.1 l -151,366 h 70.6 l 109.5,-279.3 109,279.3 h 69 l -151,-366"
         style="fill:#cde1c9;fill-opacity:1;fill-rule:nonzero;stroke:none"
         id="path258" />
      <path
         d="m 18916.1,10792.1 h -55 l -89.3,261.1 -89.3,-261.1 h -55 l -126.6,366 h 69 l 86.7,-269.4 89.3,270.4 h 54 l 89.2,-270.4 86.7,269.4 h 67 l -126.7,-366"
         style="fill:#cde1c9;fill-opacity:1;fill-rule:nonzero;stroke:none"
         id="path260" />
      <path
         d="m 17544.2,9979 h -75.3 l -95.5,137.6 -96,-137.6 h -73.2 l 132.3,184.8 -127.1,178.6 h 75.2 l 90.4,-130.3 90.8,130.3 h 73.2 l -126.7,-177.5 131.9,-185.9"
         style="fill:#cde1c9;fill-opacity:1;fill-rule:nonzero;stroke:none"
         id="path262" />
      <path
         d="m 18100.6,9979 h -64.3 v 143.3 l -144.3,220.1 h 75.2 l 101.8,-160.9 102.8,160.9 h 73.1 l -144.3,-218.5 V 9979"
         style="fill:#cde1c9;fill-opacity:1;fill-rule:nonzero;stroke:none"
         id="path264" />
      <path
         d="m 18904.7,9979 h -297.4 v 47.3 l 214.4,259.5 H 18614 v 56.6 h 290.7 v -47.2 l -214.4,-259.6 h 214.4 V 9979"
         style="fill:#cde1c9;fill-opacity:1;fill-rule:nonzero;stroke:none"
         id="path266" />
      <path
         d="m 24460.9,7087.5 -64.5,-10.4 -122.1,760.5 64.5,10.4 122.1,-760.5"
         style="fill:#b5453c;fill-opacity:1;fill-rule:nonzero;stroke:none"
         id="path270" />
      <path
         d="m 24285,7976.7 -10.7,-139.1 64.5,10.4 z"
         style="fill:#f9ddbf;fill-opacity:1;fill-rule:nonzero;stroke:none"
         id="path272" />
      <path
         d="m 24897.2,7014.5 -64.3,12 140.7,757.3 64.3,-12 -140.7,-757.3"
         style="fill:#b5453c;fill-opacity:1;fill-rule:nonzero;stroke:none"
         id="path274" />
      <path
         d="m 25030.5,7911.1 -56.9,-127.3 64.3,-12 z"
         style="fill:#efcbab;fill-opacity:1;fill-rule:nonzero;stroke:none"
         id="path276" />
      <path
         d="m 24815.7,7236.7 -64.3,11.9 140.7,757.3 64.3,-11.9 -140.7,-757.3"
         style="fill:#b5453c;fill-opacity:1;fill-rule:nonzero;stroke:none"
         id="path278" />
      <path
         d="m 24949,8133.3 -56.9,-127.4 64.3,-11.9 z"
         style="fill:#efcbab;fill-opacity:1;fill-rule:nonzero;stroke:none"
         id="path280" />
      <path
         d="m 25030.9,6785 h -514.7 v 741.9 h 514.7 V 6785"
         style="fill:#ed7d2b;fill-opacity:1;fill-rule:nonzero;stroke:none"
         id="path282" />
      <path
         d="m 24773.6,6785 h -514.8 v 741.9 h 514.8 V 6785"
         style="fill:#f99746;fill-opacity:1;fill-rule:nonzero;stroke:none"
         id="path284" />
      <path
         d="m 5809.72,7719.4 c 0,0 253.81,296.1 15.65,484.2 0,0 -173.96,105.4 -315.81,96.8 0,0 200.99,-337 135.97,-370.6 -65.03,-33.5 -196.89,391.7 -196.89,391.7 0,0 -395.88,38.4 -523.23,-22.8 0,0 338.43,-276.9 267.15,-293.4 -71.28,-16.5 -436.82,255.3 -436.82,255.3 0,0 -368.45,-62.7 -348.81,-287.5 19.65,-224.7 146.61,-294.1 202.41,-288.1 55.8,5.9 382.21,130.5 389.32,84.8 7.11,-45.7 -189.37,-195.1 -326.96,-202.1 0,0 259.76,-286.5 432.41,-203.8 172.64,82.7 187.37,213.7 294.99,262.9 107.62,49.1 199.49,49 155.06,-1.1 -44.43,-50.2 -239.2,-98.9 -300.75,-207.8 -61.54,-108.8 -116.76,-182.2 61.86,-155.4 178.62,26.9 468.96,157.6 481.7,307.3 12.75,149.6 12.75,149.6 12.75,149.6"
         style="fill:#82b378;fill-opacity:1;fill-rule:nonzero;stroke:none"
         id="path286" />
      <path
         d="m 4587.97,7967.1 c 0,0 1000.75,38.5 1221.75,-247.7 0,0 48.88,-146.3 199.27,-279.6 l 23.45,-63.9 c 0,0 -173.42,182.8 -235.47,193.9 0,0 97.04,354.6 -1209,397.3"
         style="fill:#82b378;fill-opacity:1;fill-rule:nonzero;stroke:none"
         id="path288" />
      <path
         d="m 6008.99,7439.8 c 0,0 214.81,-158.9 229.73,-442.7 l -38.99,-3.5 c 0,0 -68.6,293.5 -192.6,408.2 -124,114.8 1.86,38 1.86,38"
         style="fill:#82b378;fill-opacity:1;fill-rule:nonzero;stroke:none"
         id="path290" />
      <path
         d="m 6697.13,8091.8 c 0,0 -403.75,226.1 -215.33,533 0,0 150.73,188.4 312.23,236.8 0,0 -86.13,-457.5 0,-468.3 86.14,-10.8 59.22,516.8 59.22,516.8 0,0 425.28,204.6 592.16,188.4 0,0 -263.78,-446.8 -177.65,-436 86.14,10.7 382.22,462.9 382.22,462.9 0,0 436.05,80.8 506.03,-177.6 69.98,-258.4 -43.07,-387.6 -107.67,-403.8 -64.59,-16.1 -479.11,-10.7 -468.34,-64.6 10.76,-53.8 290.69,-139.9 446.81,-91.5 0,0 -172.26,-425.3 -398.36,-403.7 -226.11,21.5 -296.09,161.5 -436.05,172.2 -139.97,10.8 -242.25,-26.9 -172.27,-64.6 69.98,-37.7 306.85,-12.3 419.9,-108.4 113.05,-96.1 204.56,-155.4 -5.38,-198.4 -209.95,-43.1 -586.79,-16.2 -662.15,145.3 -75.37,161.5 -75.37,161.5 -75.37,161.5"
         style="fill:#a8d29f;fill-opacity:1;fill-rule:nonzero;stroke:none"
         id="path292" />
      <path
         d="m 7956.83,8867 c 0,0 -1130.5,-366 -1259.7,-775.2 0,0 5.38,-183 -107.67,-393 v -80.7 c 0,0 118.44,274.5 183.04,312.2 0,0 -253.02,355.3 1184.33,936.7"
         style="fill:#82b378;fill-opacity:1;fill-rule:nonzero;stroke:none"
         id="path294" />
      <path
         d="m 6589.46,7698.8 c 0,0 -174.34,-264.7 -74.94,-587 l 44.85,12.1 c 0,0 -43.54,354.9 47.67,533.5 91.22,178.5 -17.58,41.4 -17.58,41.4"
         style="fill:#82b378;fill-opacity:1;fill-rule:nonzero;stroke:none"
         id="path296" />
      <path
         d="m 6054.8,8403.7 c 0,0 532.22,298 283.85,702.5 0,0 -198.7,248.3 -411.58,312.2 0,0 113.54,-603.2 0,-617.4 -113.54,-14.2 -78.06,681.3 -78.06,681.3 0,0 -560.6,269.6 -780.59,248.3 0,0 347.72,-588.9 234.18,-574.8 -113.54,14.2 -503.83,610.3 -503.83,610.3 0,0 -574.8,106.5 -667.05,-234.1 -92.25,-340.7 56.78,-511 141.93,-532.3 85.15,-21.3 631.56,-14.2 617.37,-85.1 -14.19,-71 -383.2,-184.5 -588.98,-120.7 0,0 227.07,-560.6 525.11,-532.2 298.05,28.4 390.3,212.9 574.8,227.1 184.5,14.2 319.32,-35.5 227.07,-85.1 -92.24,-49.7 -404.48,-16.3 -553.5,-143 -149.02,-126.7 -269.66,-204.8 7.1,-261.5 276.75,-56.8 773.48,-21.3 872.83,191.6 99.35,212.9 99.35,212.9 99.35,212.9"
         style="fill:#a8d29f;fill-opacity:1;fill-rule:nonzero;stroke:none"
         id="path298" />
      <path
         d="m 4394.28,9425.5 c 0,0 1490.21,-482.5 1660.52,-1021.8 0,0 -7.1,-241.3 141.92,-518.1 v -106.4 c 0,0 -156.11,361.9 -241.27,411.6 0,0 333.52,468.3 -1561.17,1234.7"
         style="fill:#82b378;fill-opacity:1;fill-rule:nonzero;stroke:none"
         id="path300" />
      <path
         d="m 6196.72,7885.6 c 0,0 229.82,-349 98.8,-773.8 l -59.12,15.9 c 0,0 57.39,467.9 -62.85,703.2 -120.23,235.4 23.17,54.7 23.17,54.7"
         style="fill:#82b378;fill-opacity:1;fill-rule:nonzero;stroke:none"
         id="path302" />
      <path
         d="m 5030.22,7233.1 c 0,-575.7 466.76,-1042.5 1042.51,-1042.5 120.22,0 235.66,20.4 343.09,57.8 407.23,141.9 699.43,529.2 699.43,984.7 H 5030.22"
         style="fill:#ed7d2b;fill-opacity:1;fill-rule:nonzero;stroke:none"
         id="path304" />
      <path
         d="m 5716.45,7233.1 c 0,-390.6 93.55,-788.4 411.5,-966.9 52.86,-29.7 229.83,2.4 287.87,-17.8 407.23,141.9 699.43,529.2 699.43,984.7 h -1398.8"
         style="fill:#f99746;fill-opacity:1;fill-rule:nonzero;stroke:none"
         id="path306" />
      <path
         d="m 5015.81,6137.5 h 2113.85 c 0,35.6 -14.41,67.7 -37.68,91 -23.26,23.3 -55.44,37.7 -90.97,37.7 h -1856.6 c -71.01,0 -128.6,-57.6 -128.6,-128.7"
         style="fill:#ed7d2b;fill-opacity:1;fill-rule:nonzero;stroke:none"
         id="path308" />
      <path
         d="m 6006.24,6137.5 h 1123.42 c 0,35.6 -14.41,67.7 -37.68,91 -23.26,23.3 -55.44,37.7 -90.97,37.7 h -866.18 c -71,0 -128.59,-57.6 -128.59,-128.7"
         style="fill:#f99746;fill-opacity:1;fill-rule:nonzero;stroke:none"
         id="path310" />
      <path
         d="m 5006.49,7201.2 h 2143.05 v 31.9 H 5006.49 v -31.9"
         style="fill:#b5453c;fill-opacity:1;fill-rule:nonzero;stroke:none"
         id="path312" />
    </g>
  </g>
</svg>
