<svg xmlns="http://www.w3.org/2000/svg" version="1.1" xmlns:xlink="http://www.w3.org/1999/xlink" xmlns:svgjs="http://svgjs.dev/svgjs" width="1000" height="95" viewBox="0 0 1000 95"><g transform="matrix(1,0,0,1,-0.6060606060606233,0.04231108809889861)"><svg viewBox="0 0 396 38" data-background-color="#ffffff" preserveAspectRatio="xMidYMid meet" height="95" width="1000" xmlns="http://www.w3.org/2000/svg" xmlns:xlink="http://www.w3.org/1999/xlink"><g id="tight-bounds" transform="matrix(1,0,0,1,0.2400000000000091,-0.016924435239559443)"><svg viewBox="0 0 395.52 38.03384887047909" height="38.03384887047909" width="395.52"><g><svg viewBox="0 0 451.97879876030055 43.46301912598593" height="38.03384887047909" width="395.52"><g transform="matrix(1,0,0,1,56.458798760300574,6.0068282583670864)"><svg viewBox="0 0 395.52 31.449362609251757" height="31.449362609251757" width="395.52"><g id="textblocktransform"><svg viewBox="0 0 395.52 31.449362609251757" height="31.449362609251757" width="395.52" id="textblock"><g><svg viewBox="0 0 395.52 31.449362609251757" height="31.449362609251757" width="395.52"><g transform="matrix(1,0,0,1,0,0)"><svg width="395.52" viewBox="1.05 -35.79 462.85999999999996 36.42" height="31.449362609251757" data-palette-color="#ffffff"><g class="wordmark-text-0" data-fill-palette-color="primary" id="text-0"><path d="M29.86-23.54L29.86-23.54Q29.86-21.63 29.53-20.08 29.2-18.53 28.49-17.24 27.78-15.94 26.66-14.84 25.54-13.75 23.95-12.74L23.95-12.74 29.76-2.39 18.77-0.24 15.01-10.64 11.99-10.55 11.55-0.39 1.05-0.39Q1.17-5.96 1.28-11.47 1.39-16.99 1.54-22.56L1.54-22.56Q1.59-25.37 1.64-28.13 1.68-30.88 1.83-33.69L1.83-33.69Q3.54-34.33 5.2-34.74 6.86-35.16 8.53-35.39 10.21-35.62 11.93-35.71 13.65-35.79 15.45-35.79L15.45-35.79Q18.24-35.79 20.84-35.02 23.44-34.25 25.44-32.71 27.44-31.18 28.65-28.88 29.86-26.59 29.86-23.54ZM18.92-22.75L18.92-22.75Q18.92-23.78 18.64-24.63 18.36-25.49 17.81-26.11 17.26-26.73 16.44-27.09 15.63-27.44 14.53-27.44L14.53-27.44Q14.04-27.44 13.57-27.38 13.11-27.32 12.67-27.2L12.67-27.2 12.28-18.12 12.87-18.12Q13.92-18.12 15-18.38 16.09-18.65 16.96-19.21 17.82-19.78 18.37-20.65 18.92-21.53 18.92-22.75ZM58.79-19.73L58.79-19.73Q58.79-17.6 58.49-15.48L58.49-15.48Q54.32-15.21 50.19-14.61 46.07-14.01 41.94-13.43L41.94-13.43Q42.58-11.67 43.93-10.62 45.29-9.57 47.17-9.57L47.17-9.57Q48.14-9.57 49.3-9.94 50.46-10.3 51.61-10.85 52.76-11.4 53.81-12.04 54.86-12.67 55.61-13.18L55.61-13.18 54.44-2.1Q53.49-1.37 52.38-0.85 51.27-0.34 50.07-0.02 48.87 0.29 47.65 0.44 46.43 0.59 45.26 0.59L45.26 0.59Q42.84 0.59 40.84-0.07 38.84-0.73 37.22-1.92 35.59-3.1 34.37-4.71 33.15-6.32 32.35-8.23 31.54-10.13 31.13-12.26 30.71-14.38 30.71-16.55L30.71-16.55Q30.71-18.82 31.13-21.09 31.54-23.36 32.38-25.46 33.23-27.56 34.51-29.36 35.79-31.15 37.5-32.5 39.21-33.84 41.37-34.59 43.53-35.35 46.14-35.35L46.14-35.35Q48.31-35.35 50.11-34.75 51.9-34.16 53.31-33.09 54.71-32.03 55.75-30.57 56.78-29.1 57.46-27.36 58.13-25.61 58.46-23.67 58.79-21.73 58.79-19.73ZM49.02-20.46L49.02-21Q49.02-21.68 48.87-22.4 48.73-23.12 48.4-23.71 48.07-24.29 47.53-24.67 46.99-25.05 46.19-25.05L46.19-25.05Q45.21-25.05 44.47-24.52 43.72-24 43.19-23.21 42.65-22.41 42.31-21.48 41.97-20.56 41.79-19.78L41.79-19.78 49.02-20.46ZM90.67-12.35L90.67-12.35Q90.67-9.59 90.61-6.9 90.55-4.2 90.42-1.46L90.42-1.46 76.36-1.71Q77.09-6.03 77.63-10.34 78.17-14.65 78.17-19.04L78.17-19.04Q78.17-19.36 78.14-20.07 78.12-20.78 78.05-21.67 77.97-22.56 77.84-23.5 77.7-24.44 77.47-25.22 77.24-26 76.91-26.5 76.58-27 76.12-27L76.12-27Q75.29-27 74.71-26.51 74.14-26.03 73.76-25.26 73.38-24.49 73.16-23.54 72.94-22.58 72.83-21.63 72.72-20.68 72.69-19.84 72.65-18.99 72.65-18.46L72.65-18.46Q72.53-14.14 72.46-9.88 72.38-5.62 72.26-1.27L72.26-1.27 59.81-0.73Q60.3-9.35 60.75-17.87 61.2-26.39 61.47-35.01L61.47-35.01 72.99-35.6 72.9-31.69Q73.58-32.52 74.37-33.25 75.17-33.98 76.07-34.51 76.97-35.03 77.99-35.34 79-35.64 80.12-35.64L80.12-35.64Q82.2-35.64 83.76-34.96 85.32-34.28 86.45-33.11 87.57-31.93 88.33-30.33 89.08-28.74 89.55-26.93 90.01-25.12 90.25-23.16 90.5-21.19 90.58-19.29 90.67-17.38 90.67-15.6 90.67-13.82 90.67-12.35ZM92.2-34.38L118.82-34.42 118.57-24.07 111.3-23.78 110.42-1.12 100.11-0.59 99.19-23.24 91.91-22.85 92.2-34.38Z" fill="#ffffff" data-fill-palette-color="primary"></path><path d="M148.21-33.89L159.93-33.06 148.46-14.31 148.8-0.49 136.25-0.49 136.54-14.21 127.61-32.32 140.06-33.89 143.96-23.34 148.21-33.89ZM190.27-18.7L190.27-18.7Q190.27-16.48 189.76-14.42 189.25-12.35 188.29-10.55 187.32-8.74 185.94-7.24 184.56-5.74 182.84-4.66 181.12-3.59 179.09-2.99 177.07-2.39 174.8-2.39L174.8-2.39Q172.6-2.39 170.61-2.95 168.62-3.52 166.89-4.53 165.15-5.54 163.75-6.97 162.35-8.4 161.36-10.14 160.37-11.89 159.82-13.89 159.27-15.89 159.27-18.07L159.27-18.07Q159.27-20.19 159.78-22.23 160.29-24.27 161.26-26.07 162.22-27.88 163.59-29.39 164.96-30.91 166.65-32.01 168.35-33.11 170.33-33.72 172.31-34.33 174.5-34.33L174.5-34.33Q178.04-34.33 180.96-33.23 183.88-32.13 185.94-30.09 188-28.05 189.14-25.16 190.27-22.27 190.27-18.7ZM179.44-18.07L179.44-18.07Q179.44-19.12 179.13-20.1 178.82-21.09 178.24-21.86 177.65-22.63 176.79-23.11 175.92-23.58 174.8-23.58L174.8-23.58Q173.65-23.58 172.75-23.17 171.84-22.75 171.2-22.03 170.55-21.31 170.21-20.35 169.86-19.38 169.86-18.31L169.86-18.31Q169.86-17.29 170.16-16.26 170.45-15.23 171.04-14.4 171.62-13.57 172.49-13.06 173.36-12.55 174.5-12.55L174.5-12.55Q175.65-12.55 176.57-13 177.48-13.45 178.12-14.22 178.75-14.99 179.09-15.99 179.44-16.99 179.44-18.07ZM221.08-34.38L221.08-34.38Q219.98-25.78 219.2-17.27 218.42-8.76 217.71-0.15L217.71-0.15 207.7 0.59 208.14-3.17Q207.66-2.61 207.01-2.2 206.36-1.78 205.63-1.53 204.9-1.27 204.12-1.16 203.33-1.05 202.63-1.07L202.63-1.07Q200.97-1.1 199.5-1.72 198.04-2.34 196.82-3.38 195.59-4.42 194.62-5.8 193.64-7.18 192.97-8.7 192.3-10.23 191.94-11.82 191.59-13.4 191.59-14.89L191.59-14.89Q191.59-17.09 191.68-19.45 191.76-21.8 191.98-24.17 192.2-26.54 192.56-28.86 192.91-31.18 193.45-33.3L193.45-33.3Q196.42-33.15 199.43-33.03 202.43-32.91 205.41-32.96L205.41-32.96Q204.85-30.83 204.3-28.7 203.75-26.56 203.31-24.4 202.87-22.24 202.6-20.07 202.33-17.9 202.33-15.67L202.33-15.67Q202.33-15.16 202.38-14.21 202.43-13.26 202.64-12.33 202.85-11.4 203.27-10.71 203.7-10.01 204.48-10.01L204.48-10.01Q205.41-10.01 206.14-10.8 206.87-11.6 207.44-12.94 208-14.28 208.4-16.04 208.8-17.8 209.08-19.71 209.36-21.63 209.54-23.58 209.71-25.54 209.79-27.26 209.88-28.98 209.91-30.35 209.95-31.71 209.95-32.47L209.95-32.47Q209.95-32.96 209.93-33.42 209.9-33.89 209.85-34.38L209.85-34.38Q211.44-34.33 213-34.3 214.56-34.28 216.15-34.28L216.15-34.28Q217.37-34.28 218.6-34.29 219.84-34.3 221.08-34.38ZM251.16-23.54L251.16-23.54Q251.16-21.63 250.83-20.08 250.5-18.53 249.79-17.24 249.08-15.94 247.96-14.84 246.84-13.75 245.25-12.74L245.25-12.74 251.06-2.39 240.07-0.24 236.31-10.64 233.29-10.55 232.85-0.39 222.35-0.39Q222.47-5.96 222.58-11.47 222.69-16.99 222.84-22.56L222.84-22.56Q222.89-25.37 222.94-28.13 222.98-30.88 223.13-33.69L223.13-33.69Q224.84-34.33 226.5-34.74 228.16-35.16 229.83-35.39 231.51-35.62 233.23-35.71 234.95-35.79 236.75-35.79L236.75-35.79Q239.54-35.79 242.14-35.02 244.74-34.25 246.74-32.71 248.74-31.18 249.95-28.88 251.16-26.59 251.16-23.54ZM240.22-22.75L240.22-22.75Q240.22-23.78 239.94-24.63 239.66-25.49 239.11-26.11 238.56-26.73 237.74-27.09 236.93-27.44 235.83-27.44L235.83-27.44Q235.34-27.44 234.87-27.38 234.41-27.32 233.97-27.2L233.97-27.2 233.58-18.12 234.17-18.12Q235.22-18.12 236.3-18.38 237.39-18.65 238.26-19.21 239.12-19.78 239.67-20.65 240.22-21.53 240.22-22.75Z" fill="#23e5db" data-fill-palette-color="secondary"></path><path d="M261.41-34.38L288.02-34.42 287.78-24.07 280.5-23.78 279.62-1.12 269.32-0.59 268.39-23.24 261.12-22.85 261.41-34.38ZM316.66-19.73L316.66-19.73Q316.66-17.6 316.36-15.48L316.36-15.48Q312.19-15.21 308.06-14.61 303.94-14.01 299.81-13.43L299.81-13.43Q300.45-11.67 301.8-10.62 303.16-9.57 305.04-9.57L305.04-9.57Q306.01-9.57 307.17-9.94 308.33-10.3 309.48-10.85 310.63-11.4 311.68-12.04 312.73-12.67 313.48-13.18L313.48-13.18 312.31-2.1Q311.36-1.37 310.25-0.85 309.14-0.34 307.94-0.02 306.75 0.29 305.53 0.44 304.3 0.59 303.13 0.59L303.13 0.59Q300.72 0.59 298.71-0.07 296.71-0.73 295.09-1.92 293.46-3.1 292.24-4.71 291.02-6.32 290.22-8.23 289.41-10.13 289-12.26 288.58-14.38 288.58-16.55L288.58-16.55Q288.58-18.82 289-21.09 289.41-23.36 290.25-25.46 291.1-27.56 292.38-29.36 293.66-31.15 295.37-32.5 297.08-33.84 299.24-34.59 301.4-35.35 304.01-35.35L304.01-35.35Q306.18-35.35 307.98-34.75 309.77-34.16 311.18-33.09 312.58-32.03 313.62-30.57 314.66-29.1 315.33-27.36 316-25.61 316.33-23.67 316.66-21.73 316.66-19.73ZM306.89-20.46L306.89-21Q306.89-21.68 306.75-22.4 306.6-23.12 306.27-23.71 305.94-24.29 305.4-24.67 304.87-25.05 304.06-25.05L304.06-25.05Q303.08-25.05 302.34-24.52 301.59-24 301.06-23.21 300.52-22.41 300.18-21.48 299.84-20.56 299.67-19.78L299.67-19.78 306.89-20.46ZM339.51-34.96L349.03-2.1 336.92-0.54 335.45-6.05 329.89-6.05 328.67-0.54 316.22-1.76 325.93-34.28 339.51-34.96ZM330.91-13.53L334.58-13.53 332.72-22.02 330.91-13.53ZM372.83-33.35L372.83-33.35 371.95-23.05Q371.24-23.24 370.56-23.32 369.88-23.39 369.17-23.39L369.17-23.39Q367.43-23.39 365.86-22.95 364.28-22.51 363.08-21.61 361.87-20.7 361.15-19.32 360.43-17.94 360.43-16.06L360.43-16.06Q360.43-14.7 360.83-13.68 361.23-12.67 361.98-12 362.72-11.33 363.78-10.99 364.85-10.64 366.14-10.64L366.14-10.64Q367.04-10.64 368-10.83 368.95-11.01 369.9-11.33 370.85-11.65 371.73-12.06 372.61-12.48 373.37-12.94L373.37-12.94 372.98-1.46Q372.02-0.98 370.93-0.6 369.83-0.22 368.67 0.06 367.51 0.34 366.35 0.49 365.19 0.63 364.14 0.63L364.14 0.63Q360.67 0.63 357.83-0.66 354.98-1.95 352.94-4.19 350.91-6.42 349.78-9.38 348.66-12.33 348.66-15.67L348.66-15.67Q348.66-19.68 349.8-23.14 350.93-26.61 353.14-29.16 355.35-31.71 358.61-33.17 361.87-34.62 366.09-34.62L366.09-34.62Q367.78-34.62 369.51-34.35 371.24-34.08 372.83-33.35ZM403.37-34.33L404.15-0.98 391.94-0.39 391.85-10.69 386.23-10.69 385.89 0 374.95 0 375.88-34.33 387.5-33.79 386.77-16.26 392.19-16.26 392.24-34.62 403.37-34.33ZM433.71-19.73L433.71-19.73Q433.71-17.6 433.42-15.48L433.42-15.48Q429.25-15.21 425.12-14.61 420.99-14.01 416.87-13.43L416.87-13.43Q417.5-11.67 418.86-10.62 420.21-9.57 422.09-9.57L422.09-9.57Q423.07-9.57 424.23-9.94 425.39-10.3 426.54-10.85 427.68-11.4 428.73-12.04 429.78-12.67 430.54-13.18L430.54-13.18 429.37-2.1Q428.42-1.37 427.3-0.85 426.19-0.34 425-0.02 423.8 0.29 422.58 0.44 421.36 0.59 420.19 0.59L420.19 0.59Q417.77 0.59 415.77-0.07 413.77-0.73 412.14-1.92 410.52-3.1 409.3-4.71 408.08-6.32 407.27-8.23 406.47-10.13 406.05-12.26 405.64-14.38 405.64-16.55L405.64-16.55Q405.64-18.82 406.05-21.09 406.47-23.36 407.31-25.46 408.15-27.56 409.43-29.36 410.72-31.15 412.42-32.5 414.13-33.84 416.29-34.59 418.45-35.35 421.07-35.35L421.07-35.35Q423.24-35.35 425.03-34.75 426.83-34.16 428.23-33.09 429.64-32.03 430.67-30.57 431.71-29.1 432.38-27.36 433.05-25.61 433.38-23.67 433.71-21.73 433.71-19.73ZM423.95-20.46L423.95-21Q423.95-21.68 423.8-22.4 423.65-23.12 423.33-23.71 423-24.29 422.46-24.67 421.92-25.05 421.12-25.05L421.12-25.05Q420.14-25.05 419.39-24.52 418.65-24 418.11-23.21 417.58-22.41 417.23-21.48 416.89-20.56 416.72-19.78L416.72-19.78 423.95-20.46ZM463.91-23.54L463.91-23.54Q463.91-21.63 463.58-20.08 463.25-18.53 462.54-17.24 461.84-15.94 460.71-14.84 459.59-13.75 458-12.74L458-12.74 463.81-2.39 452.83-0.24 449.07-10.64 446.04-10.55 445.6-0.39 435.1-0.39Q435.22-5.96 435.33-11.47 435.44-16.99 435.59-22.56L435.59-22.56Q435.64-25.37 435.69-28.13 435.74-30.88 435.88-33.69L435.88-33.69Q437.59-34.33 439.25-34.74 440.91-35.16 442.59-35.39 444.26-35.62 445.98-35.71 447.7-35.79 449.51-35.79L449.51-35.79Q452.29-35.79 454.89-35.02 457.49-34.25 459.49-32.71 461.49-31.18 462.7-28.88 463.91-26.59 463.91-23.54ZM452.97-22.75L452.97-22.75Q452.97-23.78 452.69-24.63 452.41-25.49 451.86-26.11 451.31-26.73 450.5-27.09 449.68-27.44 448.58-27.44L448.58-27.44Q448.09-27.44 447.63-27.38 447.16-27.32 446.72-27.2L446.72-27.2 446.33-18.12 446.92-18.12Q447.97-18.12 449.06-18.38 450.14-18.65 451.01-19.21 451.87-19.78 452.42-20.65 452.97-21.53 452.97-22.75Z" fill="#ffffff" data-fill-palette-color="primary"></path></g></svg></g></svg></g></svg></g></svg></g><g><svg viewBox="0 0 49.034359032958854 43.46301912598593" height="43.46301912598593" width="49.034359032958854"><g><svg xmlns="http://www.w3.org/2000/svg" xmlns:xlink="http://www.w3.org/1999/xlink" version="1.1" x="0" y="0" viewBox="0 0 99.99900073683115 88.63699999999999" enable-background="new 0 0 100 88.637" xml:space="preserve" width="49.034359032958854" height="43.46301912598593" class="icon-icon-0" data-fill-palette-color="accent" id="icon-0"><path fill="#23e5db" d="M97.728 0H2.273C1.017 0 0 1.017 0 2.273v68.208c0 0.604 0.24 1.183 0.668 1.609 0.426 0.426 1.003 0.663 1.605 0.663 0.002 0 0.004 0 0.006 0l8.075-0.024c-0.608 1.969-1.219 4.006-1.793 6.018-0.459 1.602-0.267 3.289 0.546 4.749 0.81 1.461 2.144 2.517 3.751 2.975 0.521 0.155 1.112 0.239 1.711 0.239 1.378 0 2.679-0.462 3.735-1.249l-0.091 0.501c-0.222 1.234 0.599 2.417 1.835 2.639 0.135 0.024 0.271 0.036 0.404 0.036 1.079 0 2.038-0.771 2.235-1.871L26.8 63.896c0.209-1.159-0.501-2.284-1.638-2.595-1.143-0.304-2.319 0.3-2.73 1.4l-1.782 4.787c-1.385 3.522-3.101 8.74-4.443 13.441-0.213 0.746-0.895 1.234-1.638 1.234-0.153 0-0.311-0.019-0.468-0.067-0.905-0.257-1.429-1.198-1.169-2.104 0.732-2.57 3.434-11.736 5.349-16.5 0.943-2.339 1.882-4.248 2.672-5.042 2.694-2.694 5.447-2.771 5.75-2.771h11.364c0.004 0 0.007 0 0.011 0h3.389c0 0 0.006 0 0.009 0h6.818c0.004 0 0.006 0 0.011 0h3.736l10.853-13.023c0.338-0.404 0.821-0.613 1.308-0.613 0.386 0 0.774 0.129 1.094 0.396 0.724 0.604 0.821 1.678 0.218 2.401L54.148 58.479c-0.324 0.391-0.804 0.612-1.31 0.612 0 0-0.225 0-0.57 0-0.335 0-0.788 0-1.274 0h-5.615c-0.674 0-1.316 0.3-1.747 0.819-0.433 0.52-0.61 1.203-0.488 1.866l4.617 25c0.202 1.095 1.158 1.86 2.232 1.86 0.138 0 0.275-0.012 0.415-0.038 1.234-0.229 2.051-1.414 1.822-2.647l-2.437-13.197h47.934c1.256 0 2.272-1.017 2.272-2.272V2.273C100 1.017 98.983 0 97.728 0zM95.454 68.209H48.953l-0.844-4.572h4.16 0.57c1.859 0 3.608-0.817 4.801-2.246l11.363-13.637c1.07-1.282 1.576-2.903 1.425-4.567-0.15-1.66-0.938-3.165-2.222-4.235C67.079 38.015 65.658 37.5 64.2 37.5c-1.86 0-3.611 0.821-4.801 2.25l-9.488 11.386h-0.868-0.004-0.746-6.818-0.739-0.006-1.914-0.004-0.746H26.702c-2.35 0-5.939 1.078-8.964 4.102-0.521 0.523-1.7 1.7-3.697 6.627-0.573 1.409-1.381 3.702-2.266 6.398-0.138-0.024-0.264-0.082-0.411-0.082-0.002 0-0.004 0-0.007 0l-6.812 0.021V4.545h90.909V68.209z" data-fill-palette-color="accent"></path><path fill="#23e5db" d="M39.331 17.951h29.623c1.256 0 2.272-1.017 2.272-2.273 0-1.256-1.017-2.272-2.272-2.272H39.331c-1.256 0-2.273 1.017-2.273 2.272C37.058 16.935 38.075 17.951 39.331 17.951z" data-fill-palette-color="accent"></path><path fill="#23e5db" d="M51.362 27.197c0 1.256 1.017 2.273 2.273 2.273h36.203c1.257 0 2.273-1.017 2.273-2.273 0-1.256-1.017-2.272-2.273-2.272H53.636C52.379 24.925 51.362 25.941 51.362 27.197z" data-fill-palette-color="accent"></path><path fill="#23e5db" d="M34.655 48.864c5.953 0 10.795-4.843 10.795-10.796s-4.843-10.795-10.795-10.795-10.795 4.843-10.795 10.795S28.702 48.864 34.655 48.864zM34.655 31.818c3.447 0 6.25 2.803 6.25 6.25s-2.803 6.25-6.25 6.25-6.25-2.803-6.25-6.25S31.208 31.818 34.655 31.818z" data-fill-palette-color="accent"></path></svg></g></svg></g></svg></g><defs></defs></svg><rect width="395.52" height="38.03384887047909" fill="none" stroke="none" visibility="hidden"></rect></g></svg></g></svg>